<svg width="140" height="40" viewBox="0 0 140 40" fill="none" xmlns="http://www.w3.org/2000/svg">
<mask id="mask0_209_321" style="mask-type:luminance" maskUnits="userSpaceOnUse" x="0" y="0" width="140" height="40">
<path d="M140 0H0V40H140V0Z" fill="white"/>
</mask>
<g mask="url(#mask0_209_321)">
<path d="M84.9769 21.0638C105.484 4.88525 119.163 3.40425 139.674 3.8298C135.767 5.74466 127.308 9.35803 117.86 15.5319C104.837 24.0424 104.495 26.5193 90.186 34.2552C78.5707 40.5347 63.6158 40.5498 57.2393 38.8656C60.7212 38.8009 69.6286 33.1724 84.9769 21.0638Z" fill="white"/>
<path d="M58.2788 11.2765C28.1986 27.5519 8.3565 11.1347 0 0C8.46506 23.5651 24.7441 37.4466 38.7441 38.085C52.7438 38.7232 68.046 22.7659 77.8135 16.1701C87.581 9.57445 98.3252 3.61702 112.651 2.34041C112.651 2.34041 88.5577 -5.10635 58.2788 11.2765Z" fill="#1565C0"/>
</g>
</svg>
